<?xml version="1.0" standalone="no"?>
<!DOCTYPE svg PUBLIC "-//W3C//DTD SVG 20010904//EN"
 "http://www.w3.org/TR/2001/REC-SVG-20010904/DTD/svg10.dtd">
<svg version="1.0" xmlns="http://www.w3.org/2000/svg"
 width="1600.000000pt" height="576.000000pt" viewBox="0 0 1600.000000 576.000000"
 preserveAspectRatio="xMidYMid meet">

<g transform="translate(0.000000,576.000000) scale(0.100000,-0.100000)"
fill="#000000" stroke="none">
<path d="M2595 4244 c-16 -2 -65 -9 -109 -15 -263 -35 -546 -179 -747 -379
-152 -150 -186 -212 -141 -253 16 -15 48 -17 243 -17 l224 0 66 48 c90 65 171
107 278 142 277 90 554 52 808 -112 82 -53 121 -68 181 -68 164 0 262 193 168
332 -70 105 -417 270 -640 304 -98 15 -283 25 -331 18z"/>
<path d="M6968 3644 c-60 -32 -58 -10 -58 -753 0 -493 3 -687 12 -705 23 -52
51 -61 204 -64 271 -7 436 27 587 121 227 142 357 379 357 650 0 212 -81 398
-236 547 -117 112 -231 171 -396 204 -106 22 -431 22 -470 0z m503 -252 c167
-60 283 -177 339 -342 31 -91 32 -239 1 -329 -59 -171 -206 -304 -383 -346
-35 -8 -111 -15 -170 -15 l-108 0 0 531 0 532 133 -6 c96 -3 147 -10 188 -25z"/>
<path d="M8358 3644 c-60 -32 -58 -10 -58 -754 0 -740 -1 -720 55 -750 64 -34
144 -8 171 55 19 46 20 1329 1 1385 -23 66 -107 98 -169 64z"/>
<path d="M9348 3644 c-15 -8 -33 -24 -39 -36 -40 -75 -589 -1355 -589 -1374 0
-65 48 -106 123 -106 78 0 87 15 219 345 l31 77 307 0 307 0 31 -72 c17 -40
52 -122 77 -183 51 -122 81 -160 130 -169 41 -8 96 13 119 45 30 44 20 89 -68
291 -46 106 -172 399 -280 651 -108 252 -203 472 -211 488 -28 53 -101 74
-157 43z m155 -607 c53 -127 97 -235 97 -239 0 -5 -90 -8 -200 -8 -110 0 -200
3 -200 8 0 4 34 88 76 187 42 99 85 204 96 233 10 28 22 52 26 52 4 0 51 -105
105 -233z"/>
<path d="M10323 3640 c-17 -10 -37 -28 -42 -39 -8 -13 -11 -242 -11 -711 0
-681 0 -692 20 -721 12 -16 36 -33 58 -39 22 -6 168 -10 355 -10 350 0 373 3
401 59 29 56 12 136 -34 161 -22 12 -135 17 -397 19 l-173 1 0 604 c0 369 -4
615 -10 630 -12 33 -66 66 -105 66 -16 0 -44 -9 -62 -20z"/>
<path d="M10965 3645 c-16 -9 -38 -25 -47 -36 -41 -48 -33 -71 251 -730 331
-769 307 -720 353 -742 44 -22 98 -15 133 17 14 12 67 124 130 271 59 138 110
253 114 257 4 4 55 -106 115 -245 125 -289 140 -311 214 -311 70 0 94 23 140
129 372 861 542 1267 542 1292 0 36 -30 77 -72 99 -40 21 -90 11 -124 -24 -16
-17 -111 -224 -251 -549 -125 -288 -229 -523 -232 -523 -9 0 -195 432 -194
451 1 8 49 126 107 261 60 140 106 259 106 277 0 46 -24 86 -64 105 -42 20
-59 20 -94 2 -43 -22 -56 -43 -122 -196 -34 -80 -64 -146 -65 -148 -1 -1 -31
64 -65 145 -67 157 -85 184 -132 204 -38 15 -95 -1 -129 -37 -43 -46 -35 -83
84 -357 59 -136 107 -252 107 -258 0 -6 -44 -112 -97 -235 -67 -154 -100 -219
-106 -209 -4 8 -107 245 -228 527 -121 282 -228 521 -237 531 -21 24 -65 47
-89 47 -10 0 -31 -7 -48 -15z"/>
<path d="M13154 3641 c-17 -11 -36 -34 -43 -52 -15 -43 -16 -1353 -1 -1395 16
-44 56 -68 113 -68 43 0 53 4 78 31 17 20 30 48 34 75 3 24 5 338 3 699 -3
640 -4 657 -23 679 -46 51 -108 63 -161 31z"/>
<path d="M13723 3645 c-18 -8 -42 -29 -53 -47 -20 -32 -20 -45 -18 -720 l3
-688 32 -32 c28 -28 39 -32 84 -31 44 1 56 5 83 32 l31 31 5 494 5 494 262
-367 c144 -201 308 -431 364 -510 57 -79 114 -150 127 -159 13 -8 44 -15 68
-15 38 0 51 5 77 32 l32 31 3 678 c2 473 0 688 -8 715 -25 87 -137 102 -205
27 -19 -21 -20 -40 -25 -514 l-5 -491 -41 55 c-22 30 -188 261 -369 514 -368
515 -364 510 -452 471z"/>
<path d="M1570 3431 c-19 -4 -69 -23 -110 -43 -299 -146 -382 -534 -169 -796
116 -142 315 -214 493 -177 113 23 199 68 273 142 165 164 201 409 90 617 -64
121 -211 232 -338 256 -58 11 -185 11 -239 1z"/>
<path d="M4345 3381 c-56 -25 -101 -76 -366 -406 -590 -736 -703 -853 -921
-954 -269 -124 -608 -96 -873 74 -28 17 -85 64 -128 103 l-77 72 -210 0 c-197
0 -211 -1 -230 -20 -32 -32 -24 -62 43 -156 166 -236 418 -423 683 -507 379
-120 754 -87 1069 94 229 131 390 295 820 828 99 123 242 300 317 393 76 92
144 181 153 198 21 41 19 132 -4 178 -54 105 -174 150 -276 103z"/>
</g>
</svg>
